<svg width="200" height="70" fill="none" xmlns="http://www.w3.org/2000/svg"><g clip-path="url(#clip0_1_1069)"><path d="M85.402 38.215v-11.41c0-4.082-1.196-6.12-3.589-6.12-2.392 0-3.533 2.038-3.533 6.12v11.41c0 4.114 1.178 6.17 3.533 6.17s3.589-2.056 3.589-6.17zm-14.293.366V26.495c0-2.28.312-4.268.935-5.965.623-1.692 1.464-2.999 2.523-3.915 1.06-.917 2.18-1.592 3.377-2.026 1.196-.434 2.486-.65 3.87-.65 1.382 0 2.635.204 3.843.625 1.215.415 2.35 1.078 3.402 1.995 1.06.917 1.907 2.217 2.549 3.915.641 1.691.959 3.698.959 6.015v12.086c0 2.317-.318 4.324-.96 6.015-.641 1.697-1.489 2.998-2.548 3.915-1.059.917-2.193 1.58-3.402 1.994a11.79 11.79 0 01-3.844.62c-1.346 0-2.679-.217-3.87-.65-1.195-.434-2.323-1.11-3.376-2.02-1.06-.917-1.894-2.224-2.523-3.915-.623-1.691-.935-3.68-.935-5.965m-1.713-24.166v6.74h-6.032v29.561H56.4V21.143h-6.031v-6.74h19.028zM40.86 39.87v-.31c0-1.382-.362-2.429-1.09-3.141-.73-.706-1.702-1.066-2.91-1.066h-2.648v8.766h2.648c1.215 0 2.18-.347 2.91-1.035.728-.693 1.09-1.765 1.09-3.215zm-.312-14.731v-.26c0-1.351-.355-2.324-1.065-2.93-.71-.608-1.601-.911-2.68-.911h-2.597v7.935h2.598c1.04 0 1.925-.303 2.654-.91.729-.608 1.09-1.58 1.09-2.93M27.24 14.241h9.67c1.314 0 2.573.161 3.77.496 1.195.328 2.304.824 3.326 1.48 1.022.657 1.826 1.555 2.418 2.695.592 1.14.884 2.471.884 3.995v2.076c0 3.215-1.352 5.55-4.056 7 3.116 1.486 4.68 4.094 4.68 7.83v1.765c0 2.974-.973 5.253-2.91 6.845-1.938 1.592-4.61 2.385-8.006 2.385h-9.77V14.25l-.006-.007zM9.98 35.712h4.785l-2.392-13.43-2.393 13.43zm7.228 14.986l-1.614-8.04H9.252l-1.663 8.04H.623L7.95 14.397h8.891l7.327 36.3h-6.965.006z" fill="#ED1F26"/><path d="M190.816 14.415h8.58v36.3h-6.916V30.54l-5.097 20.176h-4.262l-5.04-20.176v20.176h-6.966V14.415h8.58l5.563 24.58 5.564-24.58h-.006zm-30.249 0h6.81v36.3h-6.966v-21.73l-8.473 21.73h-6.86v-36.3h6.966v21.73l8.523-21.73zM127.558 35.73h4.778l-2.392-13.43-2.393 13.43h.007zm7.227 14.99l-1.614-8.04h-6.342l-1.664 8.04h-6.966l7.327-36.3h8.891l7.327 36.3h-6.965.006zm-28.897-36.77h.934a10.97 10.97 0 013.377.625c1.072.378 2.106.954 3.091 1.71.99.761 1.782 1.84 2.392 3.24.605 1.4.929 3.035.96 4.9v.88c0 1.69-.349 3.183-1.041 4.46-.691 1.282-1.545 2.143-2.548 2.595 1.072.452 1.969 1.332 2.679 2.645.71 1.313 1.065 2.85 1.065 4.615v.626c-.037 1.901-.336 3.568-.909 5.005-.573 1.437-1.352 2.565-2.343 3.395-.991.83-2.044 1.443-3.171 1.84-1.128.396-2.349.613-3.664.65h-.828c-1.315 0-2.549-.205-3.689-.62-1.14-.415-2.237-1.046-3.271-1.895-1.04-.849-1.882-2.05-2.523-3.605-.642-1.555-.997-3.389-1.066-5.495v-.26h6.916c.137 1.66.548 2.93 1.221 3.81.673.88 1.533 1.319 2.574 1.319h.311c.972-.068 1.77-.496 2.393-1.27.623-.78.934-1.753.934-2.93v-.205c0-1.35-.374-2.403-1.115-3.165-.742-.762-1.863-1.14-3.352-1.14h-2.91v-6.585h2.91c1.389 0 2.448-.365 3.196-1.09.748-.725 1.115-1.747 1.115-3.06v-.26c0-1.11-.317-2.032-.959-2.776-.642-.743-1.377-1.152-2.212-1.22h-.311c-1.004 0-1.838.421-2.493 1.27-.66.849-1.071 2.081-1.246 3.71h-6.966l.05-.31c.106-2.074.474-3.87 1.116-5.395.641-1.524 1.47-2.707 2.492-3.55 1.022-.848 2.106-1.467 3.246-1.864a11.034 11.034 0 013.639-.595m87.233 50.605v-3.357c0-.632.081-1.19.256-1.66.168-.47.398-.836.691-1.09a3.05 3.05 0 01.947-.564c.337-.118.698-.18 1.084-.18.368 0 .711.056 1.041.174.324.117.635.297.916.551.286.248.511.601.679 1.06.168.458.255 1.003.268 1.635v.285h-1.938v-.26c-.037-1.047-.361-1.574-.966-1.574-.666 0-.997.57-.997 1.704v3.171c0 1.146.331 1.716.997 1.716.605 0 .929-.532.966-1.598v-.241h1.938v.303c-.013.632-.1 1.177-.268 1.635-.168.459-.393.812-.679 1.06a2.807 2.807 0 01-.916.545 3.05 3.05 0 01-1.041.173c-.386 0-.747-.062-1.084-.18a2.935 2.935 0 01-.947-.563c-.293-.254-.523-.62-.691-1.09-.169-.471-.256-1.023-.256-1.66m-.723-6.716v1.871h-1.676v8.214h-1.937V59.71h-1.676v-1.87h5.289zm-11.906 0h5.663v10.092h-1.919v-8.215h-1.806v8.215h-1.938V57.839zm-5.271 0v1.871h-3.153v8.214h-1.938v-10.09h5.085l.006.005zm-7.975 6.616v-3.171c0-1.134-.33-1.704-.997-1.704s-.985.57-.985 1.704v3.171c0 1.146.331 1.716.985 1.716.654 0 .997-.57.997-1.716zm-3.975.1v-3.358c0-.632.087-1.19.261-1.66.175-.471.405-.837.698-1.09.293-.255.605-.44.941-.564.33-.118.692-.18 1.078-.18.386 0 .735.056 1.072.174a2.8 2.8 0 01.947.557c.292.254.529.62.71 1.09.181.471.268 1.029.268 1.673v3.358c0 .644-.087 1.201-.268 1.672-.181.47-.411.836-.71 1.09-.293.254-.611.44-.947.558a3.217 3.217 0 01-1.072.173 3.25 3.25 0 01-1.078-.18 2.974 2.974 0 01-.941-.563c-.293-.254-.529-.62-.698-1.09-.174-.471-.261-1.023-.261-1.66zm-6.549-6.716h5.608v10.092h-1.938v-8.215h-1.732v4.845c0 .631-.087 1.183-.255 1.654-.169.464-.393.83-.673 1.09-.281.26-.58.446-.904.57-.324.118-.666.18-1.034.18h-.392v-1.871c.878 0 1.314-.57 1.314-1.716v-6.616l.006-.013zm-5.806 5.923h1.327l-.667-3.736-.667 3.736h.007zm2.006 4.169l-.449-2.237h-1.763l-.461 2.237h-1.938l2.038-10.092h2.473l2.037 10.092h-1.937zm-8.031-10.222h.261c.331.013.642.069.941.174.299.105.586.266.86.477.274.21.498.514.667.898.168.39.255.842.268 1.363v.241c0 .471-.094.886-.287 1.24-.193.359-.43.594-.71.718.299.124.548.372.741.737.199.366.299.793.299 1.282v.174c-.012.526-.093.991-.255 1.394-.162.396-.374.712-.648.941-.274.23-.567.403-.885.508a3.181 3.181 0 01-1.022.18h-.23a2.93 2.93 0 01-1.028-.174 3.159 3.159 0 01-.91-.526c-.287-.236-.523-.57-.698-1.004-.181-.433-.274-.941-.299-1.53v-.068h1.919c.037.459.15.812.343 1.06a.851.851 0 00.716.365h.087a.907.907 0 00.667-.353c.175-.217.262-.49.262-.818v-.056c0-.377-.106-.669-.312-.88-.205-.21-.517-.315-.934-.315h-.81v-1.834h.81c.386 0 .685-.099.891-.303.205-.205.311-.484.311-.85v-.073c0-.31-.087-.564-.268-.769-.18-.204-.38-.316-.61-.34h-.088c-.28 0-.51.117-.691.353-.181.235-.299.576-.349 1.028h-1.938l.013-.087c.031-.576.131-1.077.311-1.499.181-.42.411-.75.692-.99.286-.236.586-.41.903-.521a3.027 3.027 0 011.01-.167m-12.642 8.35h2.181v-6.343h-1.733v4.757c0 .65-.149 1.183-.448 1.586zm4.118 0h.723v3.605h-1.938v-1.728h-3.856v1.728h-1.938v-3.605h.361c.692-.118 1.041-.675 1.041-1.685v-6.53h5.607v8.215zm-9.52-1.598v-3.172c0-1.133-.33-1.703-.997-1.703s-.984.57-.984 1.703v3.172c0 1.146.33 1.716.984 1.716.654 0 .997-.57.997-1.716zm-3.975.099v-3.358c0-.631.087-1.189.262-1.66.174-.47.405-.836.697-1.09.293-.254.605-.44.941-.564.33-.117.692-.18 1.078-.18.386 0 .729.056 1.072.174.336.118.654.297.947.558.293.254.529.619.71 1.09.181.47.268 1.028.268 1.672v3.358c0 .644-.087 1.202-.268 1.672-.181.471-.411.837-.71 1.09-.293.255-.611.44-.947.558a3.217 3.217 0 01-1.072.174c-.38 0-.741-.062-1.078-.18a2.974 2.974 0 01-.941-.564c-.292-.254-.529-.62-.697-1.09-.175-.47-.262-1.022-.262-1.66zm-6.704-6.715h5.663v10.091h-1.919v-8.214H118.1v8.214h-1.938V57.821zm-5.14 1.87h-2.443v2.175h2.299v1.87h-2.299v2.293h2.443v1.87h-4.38V57.81h4.38v1.883zm-12.025 6.257h.691c.374 0 .661-.086.86-.266.2-.18.299-.434.299-.768v-.044c0-.334-.099-.594-.305-.78-.199-.186-.486-.273-.854-.273h-.691v2.137-.006zm4.579-8.127h1.994v10.091h-1.994V57.821zm-4.58-.031v4.051h.636c2.063.075 3.097 1.072 3.109 2.986v.1c0 .953-.274 1.69-.822 2.217-.548.526-1.396.793-2.542.793h-2.312V57.79h1.938-.006zm-4.94.03h1.919v10.092h-1.919v-4.169h-1.807v4.169h-1.938V57.821h1.938v4.051h1.807v-4.051zm-6.66 0h1.937v10.092h-1.938v-3.717c-.298.384-.766.576-1.401.576-1.564 0-2.343-.848-2.343-2.54v-4.41h1.938v3.072c0 .713.068 1.196.212 1.456.137.26.367.39.685.39.318 0 .536-.105.685-.322.15-.217.224-.62.224-1.201V57.82zm-6.505 0h1.894v10.092h-1.938v-6.04l-2.355 6.04h-1.906V57.821h1.937v6.04l2.368-6.04zm-10.966 0h5.608v10.092h-1.938v-8.214h-1.732v4.844c0 .632-.081 1.183-.25 1.654-.168.465-.392.83-.672 1.09-.28.26-.58.446-.904.57-.324.118-.666.18-1.034.18h-.392v-1.87c.878 0 1.314-.57 1.314-1.717v-6.628zm-5.807 5.923h1.327l-.666-3.735-.667 3.735h.006zm2.007 4.169l-.45-2.236h-1.762l-.461 2.236h-1.938l2.037-10.091h2.474l2.037 10.091h-1.938zm-7.396-10.091h1.919v10.091h-1.92v-4.169h-1.806v4.169h-1.938V57.821h1.938v4.051h1.807v-4.051zm-8.885 1.87h-2.442v2.175H49.7v1.87h-2.3v2.293h2.443v1.87h-4.38V57.81h4.38v1.883zm-12.019 6.257h.692c.374 0 .66-.086.86-.266.2-.18.299-.434.299-.768v-.044c0-.334-.1-.594-.305-.78-.2-.186-.486-.273-.854-.273h-.692v2.137-.006zm4.58-8.127h1.994v10.091h-1.994V57.821zm-4.58-.031v4.051h.636c2.062.075 3.096 1.072 3.109 2.986v.1c0 .953-.274 1.69-.822 2.217-.549.526-1.396.793-2.542.793h-2.312V57.79h1.938-.007zm-4.722 3.227v-.142c0-.421-.1-.731-.306-.917-.199-.186-.454-.279-.766-.279h-.691V62.2h.691c.3 0 .548-.092.76-.278.206-.186.312-.49.312-.898m-3.701-3.203h2.324c.417 0 .803.043 1.171.136.368.093.71.236 1.034.44.324.204.58.495.773.873.193.378.286.83.286 1.35v.664c0 .483-.087.904-.261 1.27a2.17 2.17 0 01-.71.86 3.54 3.54 0 01-.96.471c-.343.106-.71.168-1.103.186h-.623v3.847h-1.938v-10.09l.007-.007zm-.941 0v1.87h-1.676v8.215h-1.938v-8.214h-1.676V57.82h5.29zm-11.72 6.715v-3.358c0-.631.087-1.189.25-1.66.168-.47.398-.836.691-1.09.293-.254.61-.44.947-.564a3.26 3.26 0 011.084-.18c.387 0 .71.056 1.04.174.331.118.636.297.917.551.286.248.51.601.679 1.06.168.458.255 1.003.268 1.635v.285h-1.938v-.26c-.037-1.047-.361-1.574-.966-1.574-.666 0-.997.57-.997 1.704v3.172c0 1.146.33 1.716.997 1.716.605 0 .929-.533.966-1.599v-.241h1.938v.303c-.013.632-.1 1.177-.268 1.636-.168.458-.393.811-.68 1.059a2.803 2.803 0 01-.915.545c-.33.118-.673.174-1.04.174a3.26 3.26 0 01-1.085-.18 2.93 2.93 0 01-.947-.564c-.293-.254-.523-.62-.691-1.09-.169-.47-.25-1.022-.25-1.66M9.11 65.942h.69c.373 0 .66-.087.86-.266.199-.18.298-.434.298-.768v-.044c0-.334-.1-.595-.305-.78-.2-.186-.486-.273-.853-.273h-.692v2.137-.006zm4.58-8.127h1.993v10.09h-1.994v-10.09zm-4.58-.031v4.051h.635c2.063.074 3.097 1.072 3.11 2.986v.099c0 .954-.275 1.691-.823 2.218-.548.526-1.396.793-2.542.793H7.177V57.784h1.938-.006zM3.327 63.81h-.779v2.15h.779c.355 0 .635-.087.829-.254.199-.168.299-.41.311-.731l.013-.118c0-.335-.1-.595-.306-.78-.205-.186-.486-.273-.853-.273m-2.717-6.04h5.084v1.89H2.542v2.174h.68c2.093.068 3.133 1.072 3.133 3.01V65c-.019 1.914-1.09 2.886-3.221 2.923H.604V57.76v.006z" fill="#fff"/><path d="M160.667.52l4.174 8.611-9.308 4.188L160.667.52z" fill="#ED1F26"/></g><defs><clipPath id="clip0_1_1069"><path fill="#fff" d="M0 0h200v70H0z"/></clipPath></defs></svg>