<svg width="68" height="80" fill="none" xmlns="http://www.w3.org/2000/svg"><path d="M58.077 9.91A34.115 34.115 0 0034.021 0 34.114 34.114 0 009.964 9.91 33.746 33.746 0 000 33.839a33.746 33.746 0 009.964 23.927l21.13 21.055A4.009 4.009 0 0033.941 80a4.027 4.027 0 002.846-1.18l21.29-21.255A33.605 33.605 0 0068 33.738c0-8.937-3.57-17.508-9.923-23.827zm-5.733 41.953L34.02 70.167 15.698 51.863a25.719 25.719 0 01-7.082-13.19 25.633 25.633 0 011.478-14.882 25.791 25.791 0 019.54-11.557 26 26 0 0114.387-4.34 26 26 0 0114.387 4.34 25.792 25.792 0 019.54 11.557 25.634 25.634 0 011.478 14.881 25.719 25.719 0 01-7.082 13.19z" fill="#ED1F26"/><path d="M52.344 51.863L34.02 70.167 15.698 51.863a25.719 25.719 0 01-7.082-13.19 25.633 25.633 0 011.478-14.882 25.791 25.791 0 019.54-11.557 26 26 0 0114.387-4.34 26 26 0 0114.387 4.34 25.792 25.792 0 019.54 11.557 25.634 25.634 0 011.478 14.881 25.719 25.719 0 01-7.082 13.19z" fill="#ED1F26"/><path d="M34.582 22L44 40.838 23 50l11.582-28z" fill="#fff"/></svg>