<svg width="70" height="60" fill="none" xmlns="http://www.w3.org/2000/svg"><g clip-path="url(#clip0_1_1145)" fill="#fff"><path d="M28.407 35.01c1.03 1.345 2.114 2.65 3.188 3.962.057.07.19.105.292.108.435.011.872-.008 1.308.01.243.01.302-.077.3-.308-.01-1.26-.004-2.519-.004-3.78 0-1.269-.003-2.537.003-3.805 0-.18-.042-.268-.243-.308-.86-.163-1.72-.258-2.593-.137-.846.12-1.602.426-2.16 1.1-.453.549-.768 1.171-.6 1.9.098.437.24.91.51 1.259zm7.598 3.808c-.002.196.052.274.261.267.436-.014.873.008 1.307-.013a.558.558 0 00.36-.17 48.98 48.98 0 001.362-1.625c.608-.756 1.228-1.504 1.792-2.29.412-.57.654-1.227.484-1.949-.28-1.19-1.082-1.876-2.231-2.184-1.02-.272-2.044-.162-3.067.02-.218.04-.27.134-.268.34.008 1.259.004 2.517.004 3.776-.001 1.275.002 2.553-.004 3.828z"/><path d="M25.987 47.516h4.757c.969 0 1.931.208 2.803.63.66.321 1.099.674 1.381 1.047.524-.516 1.155-1.018 2.42-1.435a4.813 4.813 0 011.518-.242h5.115c1.13 0 2.045-.913 2.045-2.038v-20.89a2.042 2.042 0 00-2.045-2.037H25.987c-1.13 0-2.046.912-2.046 2.037V45.48c0 1.123.916 2.036 2.046 2.036zm2.73-18.157c1.209-.696 2.545-.855 3.915-.707.43.046.855.119 1.282.19.003-.278 0-.556-.006-.835-.004-.206.099-.308.287-.312l.49-.004c-.277-.358-.534-.692-.796-1.034.368-.44.688-.826 1.062-1.275l1.06 1.289-.799 1.021.444.004c.239.003.351.13.348.372-.004.245 0 .49 0 .735.774-.138 1.556-.228 2.346-.191 1.485.07 2.838.484 3.923 1.56 1.656 1.641 1.933 3.928.627 5.864-.653.972-1.428 1.865-2.164 2.781-.534.665-1.093 1.309-1.64 1.962-.222.266-.5.399-.85.392-.317-.007-.633-.002-.95-.002-.35.002-.7.007-1.05 0-.142-.005-.222.034-.239.143v.105c.004.046.002.094 0 .142v.608c0 .46-.373.833-.836.833h-.424a.834.834 0 01-.836-.833v-.5l-.001-.046.001-.023v-.32c-.02-.125-.115-.109-.45-.109-.615 0-1.23-.002-1.845 0-.3.002-.566-.099-.75-.324-1.287-1.577-2.588-3.145-3.834-4.752a4.056 4.056 0 01-.847-2.528c.011-1.885.919-3.278 2.531-4.206zm20.038 14.127a13.82 13.82 0 01-.678-.83v4.605c0 .097-.017.188-.028.28 1.433.396 3.041.037 4.407-1.06-1.25-.99-2.654-1.832-3.7-2.995zm5.527-17.538c3.367-.81 6.752-1.585 10.047-2.637 2.815-.897 4.766-2.854 5.335-5.87.287-1.526.285-3.06-.742-4.565-4.265 4.678-9.2 8.166-15.329 9.766-.72-1.08-.153-1.593.621-2.148 2.47-1.776 4.987-3.504 7.325-5.442 3.522-2.918 4.928-7.302 3.57-10.848-.415-1.086-1.19-2.035-1.932-3.266C58.659 8.465 53.96 15.45 47.66 21.125c.264.386.42.854.42 1.356V39.13c1.076 1.109 2.111 2.263 3.32 3.204 1.741 1.356 3.848 1.933 6.033 1.12.875-.327 1.603-1.048 2.5-1.66-2.428-.904-4.568-1.55-6.563-2.498-1.274-.606-2.39-1.597-3.457-2.547-.343-.305-.302-1.039-.438-1.575.51.06 1.056.019 1.523.194 2.68 1.008 5.283 2.283 8.034 3.018 1.317.353 2.962-.092 4.346-.526 1.597-.502 2.48-1.774 2.39-3.727-4.754.055-9.488-.037-13.88-2.179-.118-1.42.812-1.176 1.572-1.106 2.815.256 5.625.702 8.444.77 4.469.104 7.722-2.39 7.562-6.547-.007-.196-.088-.392-.159-.684-5.089 2.334-10.29 3.708-15.917 3.066-.45-.998-.047-1.28.89-1.505zM21.891 39.093v-16.61c0-.496.15-.954.406-1.337C15.985 15.466 11.281 8.475 6.76.937c-.743 1.232-1.516 2.18-1.933 3.267-1.359 3.546.048 7.931 3.57 10.848 2.34 1.938 4.856 3.664 7.325 5.44.774.557 1.342 1.07.621 2.15-6.129-1.601-11.064-5.088-15.329-9.768-1.027 1.507-1.028 3.04-.742 4.565.57 3.018 2.52 4.973 5.334 5.87 3.296 1.052 6.682 1.828 10.049 2.638.937.225 1.34.506.89 1.504-5.627.643-10.829-.732-15.919-3.066-.07.291-.15.487-.158.685-.16 4.156 3.094 6.65 7.562 6.544 2.82-.065 5.629-.512 8.444-.768.76-.07 1.69-.313 1.572 1.107-4.39 2.141-9.126 2.232-13.88 2.179-.09 1.952.793 3.224 2.39 3.726 1.385.436 3.03.88 4.347.528 2.75-.735 5.353-2.01 8.034-3.018.464-.177 1.012-.136 1.522-.195-.136.537-.094 1.27-.438 1.574-1.068.952-2.183 1.943-3.457 2.547-1.995.949-4.136 1.594-6.563 2.498.899.612 1.625 1.334 2.5 1.658 2.185.816 4.293.237 6.034-1.118 1.22-.949 2.267-2.118 3.357-3.24zm-.421 3.519c-.23.3-.464.595-.714.873-1.045 1.163-2.45 2.007-3.701 2.997 1.376 1.105 3.002 1.462 4.443 1.05-.01-.09-.027-.177-.027-.271l-.001-4.649zM45.232 9.3l2.845.481c-.173-1.633-1.41-1.987-2.845-.481zm-23.319.475l2.845-.481c-1.434-1.507-2.67-1.153-2.845.481z"/><path d="M22.485 7.33c5.742 1.206 8.519 7.53 5.662 12.744h13.678c-.421-.834-.917-1.624-1.134-2.482-.959-3.799 1.973-8.74 5.788-9.976 1.755-.568 3.414-.72 4.847.727 1.104-1.987.53-3.475-1.564-4.049a10.31 10.31 0 00-2.269-.333c-2.65-.113-5.3-.165-7.95-.268-.658-.027-1.313-.161-1.969-.247l-.313.374 2.755 3.255c-2.945 2.778-4.12 6.581-5.053 10.516-.723-4.078-2.17-7.733-4.902-10.558l2.856-3.429c-3.238.117-6.175.206-9.11.336-1.146.05-2.316.073-3.428.32-2.164.48-2.778 2.028-1.673 4.18 1.067-1.228 2.345-1.413 3.78-1.11zm22.642 48.211c-4.976 0-9.155.612-10.353 1.27-1.182-.65-5.267-1.253-10.151-1.269l-1.515 2.204c.43-.007.867-.012 1.313-.012 4.974 0 9.156.611 10.353 1.272 1.198-.66 5.379-1.272 10.353-1.272.688 0 1.361.01 2.013.028l-1.524-2.218c-.161 0-.324-.003-.489-.003zm-5.541-5.865a5.63 5.63 0 00-1.8.287c-.116.038-.219.077-.325.116-1.276.47-1.964 1.018-2.536 1.58l-.006.006a3.255 3.255 0 00-.28-.32c-.317-.314-.741-.612-1.303-.89l-.007-.005c-.043-.021-.089-.04-.135-.062l-.004-.002a7.537 7.537 0 00-1.575-.532c-.005-.002-.011-.002-.017-.003a8.03 8.03 0 00-1.644-.176h-4.993l-2.85 4.148c.466-.008.94-.013 1.421-.013 5.386 0 9.914.662 11.21 1.377 1.297-.715 5.825-1.377 11.212-1.377.746 0 1.474.011 2.179.03l-2.86-4.164h-5.687z"/></g><defs><clipPath id="clip0_1_1145"><path fill="#fff" d="M0 0h70v60H0z"/></clipPath></defs></svg>