<svg width="233" height="60" fill="none" xmlns="http://www.w3.org/2000/svg"><g clip-path="url(#clip0_1_1080)"><mask id="a" style="mask-type:luminance" maskUnits="userSpaceOnUse" x="-29" y="-29" width="291" height="118"><path d="M-28.528-28.781h289.684V88.515H-28.528V-28.781z" fill="#fff"/></mask><g mask="url(#a)"><path d="M29.466.544C13.471.544.502 13.674.502 29.865c0 16.194 12.969 29.324 28.964 29.324 16.003 0 28.972-13.13 28.972-29.324C58.438 13.674 45.469.544 29.466.544zm0 56.38C14.703 56.923 2.74 44.81 2.74 29.864 2.74 14.921 14.703 2.81 29.466 2.81c14.767 0 26.732 12.112 26.732 27.056 0 14.945-11.965 27.058-26.732 27.058z" fill="#fff"/></g><mask id="b" style="mask-type:luminance" maskUnits="userSpaceOnUse" x="-29" y="-29" width="291" height="118"><path d="M-28.528-28.781h289.684V88.515H-28.528V-28.781z" fill="#fff"/></mask><g mask="url(#b)"><path fill-rule="evenodd" clip-rule="evenodd" d="M29.466 51.86c1.002 0 1.608-.684 1.645-1.617.219.42.503.706.93.793.42.084.873.024 1.257-.147.39-.16.708-.462.891-.846.19-.393.127-.801-.008-1.273.47.687 1.27.865 1.97.534.963-.455 1.315-1.283.92-2.228-1.19-2.86-2.37-5.667-3.564-8.526-.109-.26-.2-.524-.321-.783-.104-.227-.176-.395-.274-.536a1.008 1.008 0 00-.28-.258c1.846.207 2.733.943 3.223 1.27.129.087.123.1.621-.058a.854.854 0 01.663.073c.222.126.451.262.645.418.665.523 1.34 1.028 1.965 1.593.292.263.713.716.654 1.12-.047.38-.955 1.25-1.225 1.51-.643.618.33 1.777 1.63 1.67-.348-.37-.43-.682-.387-.959.13-.002.378.023.611-.188.28-.257.154-1.01.415-1.266.456-.451 1.95-.493 2.845-.532.374-.015.769-.118.74-.71.568.04.687.468.687.853.486-.282.907-1.622-.898-1.93.305-.278.81-.383 1.123-.026.292-.492-.448-1.458-1.785-.912.002-.006-.599-.805-2.405 1.244-.227-.174-.454-.344-.66-.538a166.75 166.75 0 01-2.46-2.388c0-.98-.144-2.88-1.424-4.018-.546-.484-1.065-.74-2.22-.954 0 0 .558-.885.646-1.233 1.006 1.018 3.027 1.322 3.027-.397 1.648 1.672 3.179.772 3.179-.277.05.51.18 1.073.351 1.556.207.56.96 2.714 2.909 2.714.045.747.049 3.211 2.377 3.76.098.026.226.06.29.138.938 1.181 4.846 2.427 5.324 2.092-.305-.22-.783-.511-.858-1.902-.05-.916-.15-5.675-.15-12.38 0-2.371-.251-10.058-7.758-11.13-1.139-.163-2.259-.076-3.23.655-1.32.997-1.97 2.68-1.193 4.584.024.069.045.137.08.197.263.453.157.846-.186 1.192-.628.629-1.357 1.055-2.236 1.158-.556.064-1.014-.182-1.382-.567-.842-.877-1.435-1.907-1.62-3.122-.356-2.313.216-3.46.249-3.532.61-1.239 1.909-2.15 3.41-2.28.69-1.303 2.666-.788 2.666-.788.495.11.668.255.793.5 0 0 .867-1.338.05-1.873-.816-.536-2.646-.758-2.646-.758 0-.87-1.422-1.55-3.993-1.084-3.11.56-3.775-.668-3.775-.668-.13 1.506 1.005 2.282 1.371 2.493-1.18 1.295-2.827 3.883-3.219 7.556-.392-3.673-2.04-6.26-3.22-7.556.365-.211 1.501-.987 1.372-2.493 0 0-.668 1.229-3.777.668-2.569-.465-3.991.213-3.991 1.084 0 0-1.83.222-2.647.758-.816.535.049 1.874.049 1.874.127-.246.3-.391.795-.5 0 0 1.976-.516 2.665.788 1.502.13 2.8 1.04 3.411 2.28.033.072.64 1.228.25 3.531-.207 1.213-.779 2.245-1.621 3.122-.368.385-.826.631-1.382.567-.879-.103-1.608-.53-2.236-1.158-.343-.346-.45-.739-.186-1.192.035-.06.055-.128.08-.197.777-1.903.127-3.587-1.194-4.585-.97-.73-2.09-.817-3.229-.653-7.507 1.071-7.76 8.758-7.76 11.129 0 6.705-.1 11.464-.15 12.38-.075 1.39-.554 1.68-.858 1.902.48.335 4.386-.908 5.326-2.092.064-.079.192-.114.29-.139 2.328-.55 2.333-3.012 2.378-3.759 1.947 0 2.701-2.154 2.908-2.714.171-.482.3-1.045.351-1.556 0 1.049 1.531 1.947 3.179.277 0 1.72 2.021 1.417 3.027.397.088.348.645 1.233.645 1.233-1.154.213-1.674.47-2.221.954-1.278 1.14-1.423 3.04-1.423 4.018 0 0-1.762 1.744-2.459 2.388-.206.194-.433.364-.66.538-1.807-2.047-2.41-1.25-2.405-1.244-1.337-.546-2.077.42-1.785.913.311-.358.818-.253 1.123.024-1.805.307-1.386 1.65-.898 1.93 0-.386.117-.814.687-.852-.029.592.366.695.74.71.893.04 2.387.08 2.845.532.26.256.133 1.01.415 1.266.233.21.48.186.609.188.043.277-.037.59-.384.958 1.3.11 2.272-1.051 1.629-1.67-.27-.258-1.18-1.131-1.225-1.51-.059-.403.362-.856.654-1.12.626-.562 1.3-1.069 1.965-1.592.194-.156.422-.294.645-.418a.855.855 0 01.663-.073c.498.158.492.145.62.058.49-.327 1.378-1.065 3.224-1.27a.99.99 0 00-.282.258c-.098.14-.168.307-.272.536-.12.259-.212.524-.32.782-1.194 2.86-2.376 5.667-3.565 8.527-.395.945-.043 1.773.92 2.228.7.331 1.5.153 1.97-.534-.135.474-.199.88-.008 1.273.183.384.5.685.89.846.385.171.839.231 1.258.147.427-.087.711-.373.93-.793.037.933.643 1.616 1.645 1.616z" fill="#fff"/></g><mask id="c" style="mask-type:luminance" maskUnits="userSpaceOnUse" x="-29" y="-29" width="291" height="118"><path d="M-28.528-28.781h289.684V88.515H-28.528V-28.781z" fill="#fff"/></mask><g mask="url(#c)"><path d="M78.388 19.626c1.596 0 4.854-.145 6.716-.259a9.308 9.308 0 00-.086 1.043c0 .2.06.666.086.983-1.746-.22-3.5-.355-5.259-.404-.599 0-2.92.056-4.177.172v7.272h1.457c2.98 0 9.246.578 9.246 5.818 0 4.256-3.521 6.197-8.153 6.168-.519 0-2.46-.085-3.7-.085-.537 0-1.195.03-1.655.085.176-3.188.23-7.589.23-11.239 0-3.27-.023-8.224-.23-9.815 1.832.09 4.86.26 5.525.26zm-2.72 19.115c.743.03 1.626.058 2.43.058 3.378 0 5.344-1.595 5.344-4.579 0-3.213-2.34-4.258-7.774-4.258v8.78z" fill="#fff"/></g><mask id="d" style="mask-type:luminance" maskUnits="userSpaceOnUse" x="-29" y="-29" width="291" height="118"><path d="M-28.528-28.781h289.684V88.515H-28.528V-28.781z" fill="#fff"/></mask><g mask="url(#d)"><path d="M89.613 27.474c1.118-1.386 3.174-1.993 4.897-1.993 3.005 0 5.09 1.5 5.09 5.121v7.184c0 1.479.312 1.824.911 1.824.206 0 .519-.06.689-.117l.169.697a5.013 5.013 0 01-2.144.552c-.942 0-1.54-.434-1.772-1.276l-.17-.633c-1.544 1.243-3.233 1.91-4.635 1.91-2.606 0-4.296-1.393-4.296-3.826 0-2.607 1.921-3.826 4.552-4.314l2.914-.553c.977-.173 1.496-.463 1.496-1.185 0-3.155-1.318-3.966-3.493-3.966-1.686 0-2.949.492-3.862 2.377h-.346v-1.802zm7.701 5.474l-1.892.288c-2.06.32-4.352 1.043-4.352 3.248 0 1.678.92 2.576 2.776 2.576 1.147 0 2.291-.407 3.468-1.651v-4.46z" fill="#fff"/></g><mask id="e" style="mask-type:luminance" maskUnits="userSpaceOnUse" x="-29" y="-29" width="291" height="118"><path d="M-28.528-28.781h289.684V88.515H-28.528V-28.781z" fill="#fff"/></mask><g mask="url(#e)"><path fill-rule="evenodd" clip-rule="evenodd" d="M105.291 25.856c.315 0 .912-.058 1.341-.087-.227 2.2-.26 5.847-.26 5.992 1.204.06 2.946.12 3.869.12a66.87 66.87 0 003.604-.12c0-.171-.031-3.82-.256-5.991.478.029 1.112.086 1.453.086.319 0 .918-.058 1.347-.087-.231 2.173-.259 5.819-.259 7.325 0 1.216.028 5.127.259 7.328a10.386 10.386 0 00-1.318-.085c-.484 0-1.059.03-1.484.085.225-2.201.256-6.112.256-7.034-1.259-.092-2.976-.205-3.634-.205-.779 0-2.688.051-3.839.14 0 .987.033 4.895.26 7.099a10.41 10.41 0 00-1.314-.085c-.487 0-1.059.03-1.49.085.227-2.201.255-6.112.255-7.328 0-1.478-.028-5.152-.255-7.325.486.027 1.12.087 1.465.087z" fill="#fff"/></g><mask id="f" style="mask-type:luminance" maskUnits="userSpaceOnUse" x="-29" y="-29" width="291" height="118"><path d="M-28.528-28.781h289.684V88.515H-28.528V-28.781z" fill="#fff"/></mask><g mask="url(#f)"><path fill-rule="evenodd" clip-rule="evenodd" d="M121.738 25.856c.307 0 .91-.058 1.333-.087-.221 2.173-.247 5.847-.247 6.373h.462c.942 0 5.776-5.564 6.236-6.373.398.03 1.052.087 1.395.087.293 0 .979-.058 1.407-.087l-6.837 6.197c.862 1.04 5.404 6.228 7.462 8.456a25.376 25.376 0 00-1.713-.085c-.517 0-1.289.03-1.888.085-1.059-1.68-4.292-5.53-6.062-7.502h-.462c0 1.074.026 5.3.247 7.502a10.17 10.17 0 00-1.31-.085c-.48 0-1.053.03-1.49.085.235-2.201.268-6.112.268-7.328 0-1.478-.033-5.152-.268-7.325.493.027 1.124.087 1.467.087z" fill="#fff"/></g><mask id="g" style="mask-type:luminance" maskUnits="userSpaceOnUse" x="-29" y="-29" width="291" height="118"><path d="M-28.528-28.781h289.684V88.515H-28.528V-28.781z" fill="#fff"/></mask><g mask="url(#g)"><path d="M145.59 19.454c.995 0 2.289-.087 3.027-.087 5.293 0 7.358 1.622 7.358 5.268 0 4.725-3.924 6.227-8.578 6.227-.26 0-1.351-.055-1.897-.115v5.007c0 1.448.057 3.217.233 4.665-1.01-.11-2.028-.11-3.037 0 .176-3.186.233-7.591.233-11.239 0-3.27-.029-8.224-.233-9.815.948.027 2.236.09 2.894.09zm1.114 9.875c4.006 0 6.352-1.622 6.352-4.694 0-2.866-2.232-3.646-5.007-3.646-.483 0-2.146.027-2.549.087v8.133c.349.064.918.12 1.204.12z" fill="#fff"/></g><mask id="h" style="mask-type:luminance" maskUnits="userSpaceOnUse" x="-29" y="-29" width="291" height="118"><path d="M-28.528-28.781h289.684V88.515H-28.528V-28.781z" fill="#fff"/></mask><g mask="url(#h)"><path d="M170.875 33.006c0 4.434-2.841 7.734-7.325 7.734-4.405 0-7.156-3.271-7.156-7.326 0-4.806 3.031-7.933 7.411-7.933 4.349 0 7.07 3.185 7.07 7.525zm-11.761.319c0 3.273 1.345 6.283 4.376 6.283 2.919 0 4.666-2.838 4.666-6.718 0-3.128-1.203-6.283-4.437-6.283-3.09 0-4.605 3.273-4.605 6.718z" fill="#fff"/></g><mask id="i" style="mask-type:luminance" maskUnits="userSpaceOnUse" x="-29" y="-29" width="291" height="118"><path d="M-28.528-28.781h289.684V88.515H-28.528V-28.781z" fill="#fff"/></mask><g mask="url(#i)"><path fill-rule="evenodd" clip-rule="evenodd" d="M184.896 28.922h-.346c-1.001-1.649-2.401-2.315-3.975-2.315-3.35 0-4.95 3.273-4.95 6.457 0 3.677 1.998 6.544 5.549 6.544 1.177 0 2.234-.171 3.891-1.998l.26.318-.346 1.42c-1.379.929-2.916 1.392-4.69 1.392-4.466 0-7.383-3.157-7.383-7.618 0-4.661 3.148-7.64 7.753-7.64a10.123 10.123 0 014.95 1.272l-.713 2.168z" fill="#fff"/></g><mask id="j" style="mask-type:luminance" maskUnits="userSpaceOnUse" x="-29" y="-29" width="291" height="118"><path d="M-28.528-28.781h289.684V88.515H-28.528V-28.781z" fill="#fff"/></mask><g mask="url(#j)"><path fill-rule="evenodd" clip-rule="evenodd" d="M199.334 28.922h-.34c-.997-1.649-2.399-2.315-3.971-2.315-3.352 0-4.954 3.273-4.954 6.457 0 3.677 2.009 6.544 5.553 6.544 1.167 0 2.23-.171 3.887-1.998l.254.318-.34 1.42c-1.371.929-2.92 1.392-4.69 1.392-4.462 0-7.379-3.157-7.379-7.618 0-4.661 3.15-7.64 7.755-7.64 1.488 0 3.117.287 4.948 1.272l-.723 2.168z" fill="#fff"/></g><mask id="k" style="mask-type:luminance" maskUnits="userSpaceOnUse" x="-29" y="-29" width="291" height="118"><path d="M-28.528-28.781h289.684V88.515H-28.528V-28.781z" fill="#fff"/></mask><g mask="url(#k)"><path fill-rule="evenodd" clip-rule="evenodd" d="M203.576 40.337c-.173 0-.688.052-.917.085.229-2.201.259-6.112.259-7.328 0-1.478-.03-5.152-.259-7.325.488.03 1.114.087 1.457.087.315 0 .914-.058 1.347-.087-.229 2.173-.254 5.819-.254 7.325 0 1.216.025 2.923.052 3.736 1.575-1.938 7.184-9.149 8.531-11.06.304.055.506.086.852.086.17 0 .768-.058 1.089-.087-.231 2.173-.263 5.819-.263 7.325 0 1.216.032 5.127.263 7.328a10.485 10.485 0 00-1.316-.085c-.488 0-1.057.03-1.492.085.229-2.201.262-6.112.262-7.328 0-1.509-.033-3.356-.054-3.969-1.951 2.001-7.104 8.837-8.729 11.297a3.713 3.713 0 00-.828-.085z" fill="#fff"/></g><mask id="l" style="mask-type:luminance" maskUnits="userSpaceOnUse" x="-29" y="-29" width="291" height="118"><path d="M-28.528-28.781h289.684V88.515H-28.528V-28.781z" fill="#fff"/></mask><g mask="url(#l)"><path fill-rule="evenodd" clip-rule="evenodd" d="M219.776 40.337c-.173 0-.688.052-.911.085.223-2.201.253-6.112.253-7.328 0-1.478-.03-5.152-.253-7.325.482.03 1.108.087 1.451.087.315 0 .918-.058 1.347-.087-.229 2.173-.254 5.819-.254 7.325 0 1.216.025 2.923.051 3.736 1.576-1.938 7.178-9.149 8.523-11.06.315.055.517.086.861.086.169 0 .774-.058 1.085-.087-.221 2.173-.253 5.819-.253 7.325 0 1.216.032 5.127.253 7.328a10.391 10.391 0 00-1.316-.085 12.6 12.6 0 00-1.484.085c.229-2.201.253-6.112.253-7.328 0-1.509-.024-3.356-.051-3.969-1.945 2.001-7.104 8.837-8.733 11.297a3.603 3.603 0 00-.822-.085z" fill="#fff"/></g></g><defs><clipPath id="clip0_1_1080"><path fill="#fff" d="M0 0h233v60H0z"/></clipPath></defs></svg>