<svg width="90" height="30" fill="none" xmlns="http://www.w3.org/2000/svg"><g clip-path="url(#clip0_1_746)"><path d="M85.86 11.05h4.13c-.522-4.138-3.458-6.313-7.538-6.313-4.129 0-6.89 2.254-6.89 6.127 0 4.403 3.557 5.385 5.448 5.783 2.438.504 4.825.557 4.825 2.785 0 1.512-1.194 2.254-2.885 2.254-2.09 0-3.483-1.114-3.83-3.13h-4.08c.248 4.35 3.209 6.685 7.562 6.685 4.03 0 7.338-1.963 7.338-6.207 0-4.562-3.806-5.385-6.468-5.81-1.816-.29-3.806-.556-3.806-2.599 0-1.432 1.02-2.307 2.737-2.307 1.99 0 3.184 1.193 3.457 2.732zM72.776 5.4H68.87v19.23h3.906V5.4zM57.08 17.92h5.099c-.796 2.069-2.587 3.05-4.652 3.05-3.632 0-5.323-2.997-5.323-5.968 0-2.998 1.592-6.048 5.298-6.048 2.264 0 3.955 1.114 4.602 3.104h4.204c-.721-4.483-4.403-7.056-8.756-7.056-5.373 0-9.403 3.899-9.403 10.053 0 6.233 4.378 9.92 9.378 9.92 4.925 0 8.781-3.421 8.781-8.78V14.63H57.08v3.29zM39.218 5.002c-4.477 0-7.786 2.997-7.76 7.984h4.029c-.05-2.175 1.244-4.164 3.532-4.164 1.99 0 3.16 1.485 3.16 3.183 0 1.697-1.17 2.652-3.334 3.687-2.96 1.405-5.074 2.307-7.239 3.103v5.835h15.075v-3.925H36.332l.052-.017c1.76-.569 3.082-1.187 4.65-1.92 3.358-1.591 5.274-3.58 5.274-6.976 0-4.164-2.886-6.79-7.09-6.79z" fill="#403F41"/><path d="M20.86 17.867c-5.074.026-5.895 3.289-6.169 6.047l-.124 1.22h-1.02l-.125-1.22c-.273-2.758-1.119-6.02-6.02-6.047-.82-1.804-1.168-3.263-1.168-4.908 0-4.11 3.159-7.957 7.835-7.957 4.677 0 7.786 3.82 7.786 7.984 0 1.618-.149 3.077-.995 4.88zM14.02.015C6.308.015-.01 6.753-.01 15.002c0 8.276 6.318 15.013 14.03 15.013 7.786 0 14.08-6.737 14.08-15.013C28.1 6.752 21.805.015 14.02.015z" fill="#29B24A"/></g><defs><clipPath id="clip0_1_746"><path fill="#fff" d="M0 0h90v30H0z"/></clipPath></defs></svg>