<svg width="102" height="30" fill="none" xmlns="http://www.w3.org/2000/svg"><g clip-path="url(#clip0_1_966)"><path d="M97.247 26.123c2.001 0 3.419-.368 4.475-1.16v-3.595c-1.084.764-2.39 1.245-4.224 1.245-3.086 0-4.364-2.434-4.364-6.283 0-4.047 1.556-6.113 4.391-6.113 1.668 0 3.308.594 4.169 1.16V7.642c-.917-.51-2.501-.878-4.669-.878-5.53 0-8.394 4.047-8.394 9.708.028 6.198 2.835 9.65 8.616 9.65zM70.205 24.48v-3.594c-1.334.934-3.613 1.755-5.698 1.755-3.168 0-4.363-1.529-4.558-4.642H70.4v-2.32c0-6.482-2.807-8.916-7.115-8.916-5.28 0-7.782 4.104-7.782 9.736 0 6.481 3.141 9.623 8.644 9.623 2.751 0 4.78-.765 6.059-1.642zM30.545 7.104v7.358h-5.782V7.104h-4.335v18.65h4.335v-7.782h5.781v7.783h4.336V7.104h-4.336zm23.873 15.141h-1.917V7.104H39.883v1.585c0 4.556-.278 10.443-1.807 13.556h-1.39V30h4.003v-4.245h9.7V30h4.002v-7.755h.028zm29.6 3.51h4.92l-6.949-10.047 6.114-8.604H83.74l-6.114 8.604V7.104H73.29v18.65h4.336v-9.17l6.392 9.17zM63.173 10.217c2.14 0 2.807 1.811 2.807 4.16v.368h-6.03c.11-2.971 1.167-4.528 3.223-4.528zM48.165 22.245h-6.114c1.195-2.802 1.528-7.896 1.528-11.122v-.566h4.586v11.688z" fill="#000"/><path d="M16.815 25.755h-4.42V3.48h-1.973c-3.613 0-5.503 1.84-5.503 4.585 0 3.113 1.307 4.557 4.003 6.396l2.223 1.529-6.392 9.764H0l5.753-8.717C2.446 14.632.583 12.283.583 8.32.584 3.368 3.975 0 10.396 0h6.392v25.755h.028z" fill="#FC3F1D"/></g><defs><clipPath id="clip0_1_966"><path fill="#fff" d="M0 0h102v30H0z"/></clipPath></defs></svg>