<svg width="40" height="40" fill="none" xmlns="http://www.w3.org/2000/svg"><path d="M31.667 11.667H30V10a5 5 0 00-5-5H8.334a5 5 0 00-5 5v20a5 5 0 005 5h23.333a5 5 0 005-5V16.667a5 5 0 00-5-5zM8.333 8.333H25A1.667 1.667 0 0126.667 10v1.667H8.333a1.667 1.667 0 110-3.334zm25 16.667h-1.666a1.667 1.667 0 010-3.333h1.666V25zm0-6.667h-1.666a5 5 0 000 10h1.666V30a1.666 1.666 0 01-1.666 1.667H8.333A1.667 1.667 0 016.668 30V14.717A5.003 5.003 0 008.335 15h23.333a1.666 1.666 0 011.666 1.667v1.666z" fill="#ED1F26"/></svg>