<svg width="24" height="24" fill="none" xmlns="http://www.w3.org/2000/svg"><g clip-path="url(#clip0_142_4333)"><path d="M12 24c6.627 0 12-5.373 12-12S18.627 0 12 0 0 5.373 0 12s5.373 12 12 12z" fill="#665CAC"/><path fill="#D9D9D9" d="M0 0h24v24H0z"/><path fill="url(#paint0_linear_142_4333)" d="M0 0h24v24H0z"/><path fill="#665CAC" d="M0 0h24v24H0z"/><path d="M13.263 5.684h-2.526a4.421 4.421 0 00-4.421 4.421V12a4.421 4.421 0 002.526 3.996v2.111a.212.212 0 00.359.149l1.834-1.835h2.228A4.421 4.421 0 0017.684 12v-1.895a4.42 4.42 0 00-4.42-4.42zm1.655 8.286l-.632.632c-.672.658-2.428-.093-3.975-1.674-1.548-1.58-2.227-3.353-1.58-4.012l.632-.631a.665.665 0 01.899.01l.922.946a.62.62 0 01-.253 1.022.604.604 0 00-.407.726c.158.701 1.048 1.58 1.711 1.751a.632.632 0 00.738-.391.619.619 0 011.034-.221l.92.947a.663.663 0 01-.009.895zm-2.343-5.286c-.063 0-.126.003-.188.011a.21.21 0 01-.046-.418 2.108 2.108 0 012.33 2.326.21.21 0 01-.31.161.211.211 0 01-.108-.207 1.688 1.688 0 00-1.678-1.873zm1.263 1.685a.21.21 0 01-.354.138.212.212 0 01-.068-.138.842.842 0 00-.841-.842.212.212 0 110-.421 1.263 1.263 0 011.263 1.263zm1.606.684a.213.213 0 01-.172.174.211.211 0 01-.239-.272 2.526 2.526 0 00-2.458-3.109h-.196a.21.21 0 01-.031-.42 2.953 2.953 0 013.096 3.627z" fill="#fff"/></g><defs><linearGradient id="paint0_linear_142_4333" x1="1200" y1="0" x2="1200" y2="2400" gradientUnits="userSpaceOnUse"><stop stop-color="#2AABEE"/><stop offset="1" stop-color="#229ED9"/></linearGradient><clipPath id="clip0_142_4333"><path fill="#fff" d="M0 0h24v24H0z"/></clipPath></defs></svg>