<svg width="29" height="29" fill="none" xmlns="http://www.w3.org/2000/svg"><path d="M22.958 8.458H21.75V7.25a3.625 3.625 0 00-3.625-3.625H6.04A3.625 3.625 0 002.416 7.25v14.5a3.625 3.625 0 003.626 3.625h16.916a3.625 3.625 0 003.625-3.625v-9.667a3.625 3.625 0 00-3.625-3.625zM6.042 6.042h12.083a1.208 1.208 0 011.208 1.208v1.208H6.042a1.208 1.208 0 110-2.416zm18.124 12.083h-1.208a1.208 1.208 0 110-2.417h1.209v2.417zm0-4.833h-1.208a3.625 3.625 0 100 7.25h1.209v1.208a1.208 1.208 0 01-1.209 1.208H6.042a1.208 1.208 0 01-1.209-1.208V10.67c.388.136.797.206 1.208.205h16.917a1.208 1.208 0 011.209 1.208v1.209z" fill="#fff"/></svg>