<svg width="200" height="200" fill="none" xmlns="http://www.w3.org/2000/svg"><circle cx="99.702" cy="99.702" r="70.5" transform="rotate(-45 99.702 99.702)" fill="#171717"/><circle cx="99.479" cy="99.702" r="40.5" transform="rotate(-45 99.479 99.702)" fill="#222"/><path opacity=".2" d="M135.514 56.205c-8.204-6.45-17.668-10.204-27.323-11.388" stroke="#fff" stroke-width="1.5"/><path d="M136.334 63.686l6.432-5.297 1.245 1.511-4.02 3.311 6.165-.706 1.249 1.516-6.432 5.297-1.245-1.511 4.07-3.353-6.223.739-1.241-1.507zm6.489 8.082l7.365-3.897.924 1.747-2.731 1.444 1.537 2.904 2.73-1.445.924 1.747-7.365 3.897-.924-1.747 3.041-1.609-1.537-2.903-3.04 1.608-.924-1.746zm5.131 10.774l6.231-1.951-.664-2.119 1.721-.539 1.921 6.134-1.721.54-.663-2.12-6.231 1.952-.594-1.897zm1.895 6.348l8.253-1.148.807 5.8-1.698.236-.535-3.843-1.533.213.449 3.225-1.568.218-.449-3.225-1.739.242.542 3.89-1.716.24-.813-5.848zm1.104 8.782l8.328.272-.109 3.338c-.02.622-.147 1.17-.381 1.643-.23.472-.556.839-.977 1.099-.422.264-.922.387-1.501.368-.587-.019-1.08-.163-1.48-.43-.401-.267-.7-.646-.898-1.137-.198-.491-.286-1.081-.264-1.771l.043-1.315-2.825-.092.064-1.975zm4.415 2.121l-.042 1.267c-.013.417.058.743.213.978.159.239.428.365.809.378.381.012.66-.1.839-.336.182-.232.28-.545.292-.937l.042-1.28-2.153-.07zm-4.832 6.73l8.159 1.689-.4 1.935-2.769-.573-.276 1.335c-.125.606-.343 1.122-.654 1.548-.308.43-.692.738-1.152.922-.46.189-.974.224-1.541.107a3.003 3.003 0 01-1.099-.447 2.27 2.27 0 01-.722-.799 2.858 2.858 0 01-.318-1.105 4.814 4.814 0 01.105-1.389l.667-3.223zm1.22 2.27l-.257 1.242c-.085.408-.071.741.042.999.116.263.36.433.733.511.373.077.668.014.884-.188.219-.198.368-.489.448-.874l.259-1.253-2.109-.437zm-3.141 6.378l7.744 3.074-2.16 5.443-1.593-.632 1.431-3.607-1.438-.57-1.201 3.026-1.471-.584 1.2-3.026-1.632-.648-1.448 3.651-1.61-.639 2.178-5.488zm-3.385 8.177l7.098 4.364-1.748 2.844c-.327.531-.708.944-1.146 1.239a2.6 2.6 0 01-1.393.471c-.497.02-.992-.121-1.486-.425-.5-.307-.858-.676-1.073-1.107-.215-.43-.287-.907-.216-1.432.071-.525.287-1.081.648-1.669l.689-1.121-2.408-1.48 1.035-1.684zm2.783 4.031l-.664 1.08c-.218.355-.318.673-.3.954.019.287.191.53.516.729.324.2.622.241.895.124.273-.111.512-.334.718-.669l.67-1.09-1.835-1.128zm-5.495 4.793l1.31 1.096-2.246 2.684-1.31-1.096 2.246-2.684zm-5.956 3.278l5.469 6.286-1.491 1.297-4.285-4.926-2.389 2.079 4.286 4.926-1.491 1.296-5.469-6.286 5.37-4.672zm-6.346 2.744l1.376 1.58.516-.449 1.184 1.361-1.931 1.679-2.559-2.941 1.414-1.23zm-1.62 3.899l4.201 7.197-5.058 2.952-.864-1.48 3.351-1.957-.78-1.336-2.811 1.641-.799-1.367 2.812-1.641-.885-1.517-3.393 1.981-.873-1.496 5.099-2.977zm-7.621 4.371l2.783 7.853-1.863.66-1.031-2.911-3.097 1.097 1.032 2.912-1.863.66-2.783-7.854 1.863-.66 1.149 3.242 3.096-1.097-1.149-3.242 1.863-.66zm-11.316 3.472l1.042 6.445 2.191-.354.288 1.78-6.346 1.025-.288-1.78 2.192-.354-1.041-6.445 1.962-.317zm-6.527.957l-.03 8.333-3.34-.013c-.622-.002-1.173-.113-1.653-.333a2.59 2.59 0 01-1.127-.944c-.276-.414-.413-.911-.411-1.49.002-.587.13-1.085.386-1.492.255-.408.626-.718 1.11-.931.485-.212 1.073-.317 1.763-.315l1.316.005.01-2.827 1.976.007zm-1.992 4.475l-1.268-.005c-.417-.002-.74.079-.971.24-.235.166-.353.44-.354.821-.002.38.118.657.36.828.237.176.552.264.945.265l1.28.005.008-2.154zm-37.349-19.655l-6.432 5.298-1.245-1.512 4.02-3.311-6.165.706-1.249-1.516 6.432-5.297 1.245 1.511-4.07 3.353 6.223-.739 1.241 1.507zm-6.489-8.082l-7.364 3.897-.925-1.746 2.73-1.445-1.536-2.904-2.73 1.445-.924-1.747 7.365-3.897.924 1.747-3.04 1.609 1.536 2.904 3.04-1.609.924 1.746zm-5.131-10.774l-6.23 1.951.663 2.119-1.721.539-1.921-6.134 1.72-.539.664 2.118 6.231-1.951.594 1.897zm-1.895-6.348l-8.253 1.149-.807-5.801 1.698-.236.535 3.843 1.532-.213-.448-3.224 1.568-.219.449 3.225 1.739-.242-.542-3.891 1.716-.238.813 5.847zm-1.104-8.782l-8.328-.272.109-3.337c.02-.623.147-1.17.381-1.643.23-.473.556-.84.977-1.1.422-.264.922-.387 1.5-.368.588.02 1.081.163 1.481.43.4.267.7.646.898 1.137.199.49.286 1.081.264 1.771l-.043 1.315 2.825.092-.064 1.975zm-4.415-2.121l.041-1.267c.014-.417-.057-.743-.212-.978-.159-.24-.428-.365-.81-.378-.38-.012-.66.1-.838.336-.182.232-.28.545-.293.937l-.041 1.28 2.153.07zm4.833-6.73l-8.16-1.689.4-1.935 2.769.573.276-1.334c.125-.606.343-1.123.654-1.549.308-.43.692-.738 1.152-.922.46-.188.974-.224 1.541-.106.428.088.794.237 1.099.446.305.209.546.475.722.8.173.319.279.687.318 1.105.036.416 0 .879-.105 1.388l-.667 3.223zm-1.22-2.27l.256-1.242c.085-.408.07-.74-.042-1-.116-.262-.36-.432-.733-.51-.373-.077-.668-.014-.884.188-.22.198-.368.49-.448.874l-.26 1.253 2.11.437zm3.14-6.378l-7.744-3.074 2.16-5.443 1.593.632-1.431 3.607 1.438.57 1.2-3.025 1.472.584-1.2 3.026 1.632.647 1.448-3.65 1.61.638-2.178 5.488zm3.385-8.178l-7.098-4.363 1.748-2.844c.327-.531.708-.944 1.146-1.239a2.587 2.587 0 011.393-.47c.497-.02.992.12 1.486.424.5.307.858.676 1.073 1.107.215.43.287.907.216 1.432-.07.525-.287 1.081-.648 1.67l-.69 1.12 2.41 1.48-1.036 1.684zm-2.783-4.03l.664-1.08c.218-.355.318-.673.3-.954-.02-.287-.191-.53-.516-.73-.324-.199-.622-.24-.895-.123-.273.111-.512.334-.718.669l-.67 1.09 1.835 1.128zm5.495-4.793l-1.31-1.096 2.245-2.684 1.31 1.096-2.245 2.684zm5.956-3.277l-5.47-6.287 1.492-1.297 4.285 4.926 2.389-2.078-4.286-4.926 1.491-1.297 5.47 6.286-5.371 4.672zm6.346-2.745l-1.376-1.58-.516.45-1.183-1.361 1.93-1.68 2.559 2.941-1.414 1.23zm1.62-3.899l-4.2-7.197 5.057-2.952.864 1.48-3.351 1.957.78 1.336 2.811-1.641.799 1.367-2.812 1.642.885 1.516 3.392-1.98.874 1.495-5.1 2.977zm7.621-4.371l-2.783-7.853 1.863-.66 1.031 2.911 3.097-1.097-1.032-2.912 1.863-.66 2.783 7.854-1.862.66-1.15-3.242-3.096 1.097 1.149 3.242-1.863.66zm11.316-3.472l-1.041-6.445-2.192.354-.288-1.78 6.346-1.025.288 1.78-2.192.354 1.041 6.445-1.962.317zm6.527-.957l.03-8.332 3.339.012c.623.002 1.174.113 1.654.333.479.216.855.53 1.127.945.276.413.413.91.411 1.489-.002.587-.131 1.085-.386 1.492-.255.408-.626.718-1.11.93-.485.213-1.073.318-1.763.316l-1.316-.005-.01 2.827-1.976-.007zm1.992-4.474l1.268.004c.417.002.74-.078.971-.24.235-.166.353-.44.354-.82.002-.381-.118-.657-.36-.829-.237-.175-.552-.264-.945-.265l-1.28-.005-.008 2.154z" fill="#fff"/></svg>